<?xml version="1.0" standalone="no"?>
<!DOCTYPE svg PUBLIC "-//W3C//DTD SVG 20010904//EN"
 "http://www.w3.org/TR/2001/REC-SVG-20010904/DTD/svg10.dtd">
<svg version="1.0" xmlns="http://www.w3.org/2000/svg"
 width="720.000000pt" height="720.000000pt" viewBox="0 0 720.000000 720.000000"
 preserveAspectRatio="xMidYMid meet">
<metadata>
Created by potrace 1.14, written by Peter Selinger 2001-2017
</metadata>
<g transform="translate(0.000000,720.000000) scale(0.100000,-0.100000)"
fill="#000000" stroke="none">
<path d="M3455 6333 c-16 -2 -84 -10 -150 -19 -66 -8 -136 -19 -155 -24 -19
-5 -73 -19 -120 -31 -81 -20 -182 -51 -225 -69 -165 -67 -282 -123 -365 -175
-30 -19 -68 -41 -85 -48 -45 -22 -219 -155 -312 -238 -86 -78 -222 -219 -257
-268 -12 -16 -46 -62 -77 -102 -161 -214 -290 -480 -382 -789 -24 -78 -43
-176 -62 -315 -34 -250 -45 -322 -56 -375 -11 -51 -13 -53 -21 -30 -13 32 -3
261 17 396 21 152 60 313 111 464 46 138 197 460 242 517 14 17 27 39 28 48 3
20 46 85 57 85 4 0 7 6 7 13 0 8 18 40 41 71 70 98 35 73 -43 -31 -257 -341
-415 -725 -484 -1173 -25 -160 -25 -520 0 -680 73 -474 248 -882 534 -1240
392 -491 985 -827 1617 -914 239 -33 534 -30 740 8 l70 13 -80 -3 c-44 -2
-125 -6 -179 -9 -55 -3 -97 -2 -94 1 3 3 50 9 104 14 466 43 937 233 1316 530
107 85 297 272 384 380 326 407 535 957 537 1415 1 110 -4 158 -20 225 -11 47
-24 117 -27 155 -23 237 -84 476 -181 710 -78 188 -196 386 -353 590 -61 79
-262 280 -362 361 -81 66 -263 194 -276 194 -3 0 -18 8 -32 19 -27 19 -177 96
-242 124 -229 101 -424 153 -720 192 -54 7 -402 14 -445 8z m205 -188 c35 -18
60 -62 60 -105 0 -79 -77 -140 -144 -114 -9 3 -14 10 -11 14 3 4 -11 24 -29
44 -39 41 -54 88 -36 120 27 51 103 71 160 41z m0 -360 c35 -18 60 -62 60
-105 0 -79 -77 -140 -144 -114 -9 3 -14 10 -11 14 3 4 -11 24 -29 44 -39 41
-54 88 -36 120 27 51 103 71 160 41z m0 -410 c35 -18 60 -62 60 -105 0 -79
-77 -140 -144 -114 -9 3 -14 10 -11 14 3 4 -11 24 -29 44 -39 41 -54 88 -36
120 27 51 103 71 160 41z m1330 -50 c35 -18 60 -62 60 -105 0 -79 -77 -140
-144 -114 -9 3 -14 10 -11 14 3 4 -11 24 -29 44 -39 41 -54 88 -36 120 27 51
103 71 160 41z m-2650 -80 c35 -18 60 -62 60 -105 0 -79 -77 -140 -144 -114
-9 3 -14 10 -11 14 3 4 -11 24 -29 44 -39 41 -54 88 -36 120 27 51 103 71 160
41z m1320 -260 c35 -18 60 -62 60 -105 0 -79 -77 -140 -144 -114 -9 3 -14 10
-11 14 3 4 -11 24 -29 44 -39 41 -54 88 -36 120 27 51 103 71 160 41z m850
-50 c35 -18 60 -62 60 -105 0 -79 -77 -140 -144 -114 -9 3 -14 10 -11 14 3 4
-11 24 -29 44 -39 41 -54 88 -36 120 27 51 103 71 160 41z m-1740 -60 c35 -18
60 -62 60 -105 0 -79 -77 -140 -144 -114 -9 3 -14 10 -11 14 3 4 -11 24 -29
44 -39 41 -54 88 -36 120 27 51 103 71 160 41z m955 -430 c88 -23 167 -70 233
-139 96 -100 142 -214 142 -351 0 -284 -251 -517 -530 -491 -74 7 -152 27
-132 33 10 4 10 8 1 19 -6 8 -17 14 -23 14 -37 0 -196 125 -196 154 0 5 -8 19
-19 30 -10 12 -32 55 -49 97 -30 74 -36 115 -33 248 2 114 124 282 253 347
105 53 240 68 353 39z m-1745 -400 c35 -18 60 -62 60 -105 0 -79 -77 -140
-144 -114 -9 3 -14 10 -11 14 3 4 -11 24 -29 44 -39 41 -54 88 -36 120 27 51
103 71 160 41z m670 0 c35 -18 60 -62 60 -105 0 -79 -77 -140 -144 -114 -9 3
-14 10 -11 14 3 4 -11 24 -29 44 -39 41 -54 88 -36 120 27 51 103 71 160 41z
m2000 0 c35 -18 60 -62 60 -105 0 -79 -77 -140 -144 -114 -9 3 -14 10 -11 14
3 4 -11 24 -29 44 -39 41 -54 88 -36 120 27 51 103 71 160 41z m830 0 c35 -18
60 -62 60 -105 0 -79 -77 -140 -144 -114 -9 3 -14 10 -11 14 3 4 -11 24 -29
44 -39 41 -54 88 -36 120 27 51 103 71 160 41z m-2610 -820 c35 -18 60 -62 60
-105 0 -79 -77 -140 -144 -114 -9 3 -14 10 -11 14 3 4 -11 24 -29 44 -39 41
-54 88 -36 120 27 51 103 71 160 41z m1580 -10 c35 -18 60 -62 60 -105 0 -79
-77 -140 -144 -114 -9 3 -14 10 -11 14 3 4 -11 24 -29 44 -39 41 -54 88 -36
120 27 51 103 71 160 41z m-790 -150 c35 -18 60 -62 60 -105 0 -79 -77 -140
-144 -114 -9 3 -14 10 -11 14 3 4 -11 24 -29 44 -39 41 -54 88 -36 120 27 51
103 71 160 41z m-1160 -170 c35 -18 60 -62 60 -105 0 -79 -77 -140 -144 -114
-9 3 -14 10 -11 14 3 4 -11 24 -29 44 -39 41 -54 88 -36 120 27 51 103 71 160
41z m2270 -20 c35 -18 60 -62 60 -105 0 -79 -77 -140 -144 -114 -9 3 -14 10
-11 14 3 4 -11 24 -29 44 -39 41 -54 88 -36 120 27 51 103 71 160 41z m-1110
-220 c102 -53 62 -226 -52 -225 -13 0 -28 4 -34 8 -19 13 -84 116 -84 134 0
76 95 122 170 83z m0 -370 c102 -53 62 -226 -52 -225 -13 0 -28 4 -34 8 -19
13 -84 116 -84 134 0 76 95 122 170 83z m0 -400 c102 -53 62 -226 -52 -225
-13 0 -28 4 -34 8 -19 13 -84 116 -84 134 0 76 95 122 170 83z"/>
<path d="M1760 5555 c-7 -9 -8 -15 -2 -15 5 0 12 7 16 15 3 8 4 15 2 15 -2 0
-9 -7 -16 -15z"/>
</g>
</svg>
